<?xml version="1.0" encoding="UTF-8" standalone="no"?><!DOCTYPE svg PUBLIC "-//W3C//DTD SVG 1.1//EN" "http://www.w3.org/Graphics/SVG/1.1/DTD/svg11.dtd"><svg width="100%" height="100%" viewBox="0 0 4688 4194" version="1.1" xmlns="http://www.w3.org/2000/svg" xmlns:xlink="http://www.w3.org/1999/xlink" xml:space="preserve" xmlns:serif="http://www.serif.com/" style="fill-rule:evenodd;clip-rule:evenodd;stroke-linecap:round;stroke-linejoin:round;stroke-miterlimit:1.5;"><g><path id="Meteor-Vector" serif:id="Meteor Vector" d="M4031.48,2402.13l-294.484,222.877c-0,-0 -74.664,21.362 -108.663,130.395c-26.26,84.213 -127.678,88.741 -127.678,88.741c-0,-0 -204.536,70.667 -153.939,260.79c29.882,112.284 28.977,127.678 28.977,127.678c-0,0 -229.652,30.133 -301.538,130.395c-34.41,47.993 -149.411,83.416 -149.411,282.522c-0,8.929 -117.718,6.212 -117.718,6.212c0,0 -54.331,-13.582 -72.442,-31.693c-18.11,-18.11 -152.127,-177.482 -249.018,-171.143c-96.89,6.338 -112.742,-20.827 -225.474,154.844c-43.912,68.428 -220.49,-17.205 -220.49,-17.205c-0,-0 -84.937,-74.915 -227.286,-0.906c-93.905,48.823 -162.993,46.182 -162.993,46.182c-0,-0 -77.651,-302.275 -336.345,-339.231c-257.507,-36.786 -372.112,-65.084 -372.112,-65.084l123.094,-84.893c0,0 31.405,-313.307 -116.02,-356.548c-242.812,-71.219 -307.028,-318.347 -307.028,-318.347c0,-0 350.89,-49.521 319.762,-322.592c-31.127,-273.071 -46.691,-290.049 -46.691,-290.049c0,-0 -9.897,-21.808 -42.93,-38.614c-31.715,-16.136 -53.897,-23.181 -60.851,-34.192c-6.955,-11.012 -1.739,-79.976 -1.739,-79.976l151.838,-116.486l-68.385,-129.236l-119.963,15.647l-23.761,-249.778c-0,-0 191.246,123.44 256.153,110.69c64.908,-12.749 99.537,-21.894 146.622,-96.202c40.362,-63.699 48.681,-78.799 48.681,-78.799l111.27,33.613l77.658,-63.169l-60.272,-52.738c0,0 31.511,-110.232 -69.544,-206.893c-42.609,-40.757 -63.169,-102.578 -63.169,-102.578l117.645,-15.067c0,-0 53.318,3.477 111.271,-135.032c57.953,-138.508 168.064,-185.45 168.064,-185.45l51.579,162.849l152.997,8.693c-0,-0 -39.409,88.668 -74.76,119.383c-35.352,30.716 -62.01,62.01 -62.01,62.01c-0,0 89.797,106.156 192.405,100.839c111.85,-5.795 162.454,-85.408 223.12,-218.658c32.454,-71.282 31.295,-112.429 62.01,-147.781c12.375,-14.243 59.112,-33.033 59.112,-33.033c0,0 227.177,48.101 294.403,16.806c67.226,-31.294 112.827,-49.055 155.315,-111.27c32.454,-47.522 106.055,-145.463 106.055,-145.463c-0,0 148.36,40.568 186.03,38.25c37.669,-2.319 93.763,-42.554 121.122,-58.533c65.487,-38.25 72.442,-54.476 143.145,-46.943c108.834,11.598 161.69,-13.329 203.416,-58.532c41.726,-45.204 102.29,-119.432 102.29,-119.432c0,0 85.282,183.937 -64.111,313.926c-36.996,32.19 -150.101,224.081 -150.101,224.081c0,-0 -334.057,71.116 -444.802,53.906c-102.773,-15.97 -242.468,-54.031 -291.093,135.581c-41.526,161.932 54.19,227.866 54.19,227.866c0,-0 88.624,-1.061 125.977,12.521c37.353,13.583 69.046,22.638 69.046,22.638l125.641,-62.254l-4.528,-79.233l66.783,10.187l-9.056,91.684c0,-0 37.353,127.905 88.289,150.543c50.935,22.638 92.815,13.582 124.509,-61.123c54.591,-128.678 24.902,-53.199 24.902,-53.199c-0,-0 90.552,3.395 183.367,27.165c92.816,23.77 91.684,45.276 91.684,45.276l101.871,-22.638l-0.443,-83.235l47.522,-49.261l-5.216,-81.714l-1.739,-7.534l66.646,-2.897c0,-0 89.249,-31.295 140.827,-87.51c51.578,-56.215 53.897,-44.624 53.897,-44.624l-38.829,184.871l-200.808,111.554l86.205,130.757c0,-0 -228.819,40.694 -243.404,197.041c-12.557,134.612 137.908,231.812 137.908,231.812l-109.387,136.19l102.867,51.816l-3.622,59.02l-67.94,168.087c0,-0 -124.051,87.018 -79.686,256.262c24.449,93.269 54.332,135.828 54.332,135.828l98.701,94.174c0,0 165.711,12.677 227.286,-93.268c61.575,-105.946 87.835,-229.097 87.835,-229.097c0,-0 47.087,213.703 66.103,261.695c5.329,13.448 8.808,21.137 11.057,25.236Zm-1792.9,-1315.23c601.857,0 1090.49,488.632 1090.49,1090.49c-0,601.857 -488.632,1090.49 -1090.49,1090.49c-601.857,0 -1090.49,-488.632 -1090.49,-1090.49c0,-601.857 488.632,-1090.49 1090.49,-1090.49Zm1792.9,1315.23c2.889,5.269 3.747,4.62 3.882,2.653c0.136,-1.967 -0.45,-5.251 -0.45,-5.251l-3.432,2.598Zm-37.093,-460.366l-57.229,-5.795l1.449,-85.482c-0,0 31.15,-113.009 57.229,-125.324c10.563,-4.988 0.724,164.443 0.724,164.443l-2.173,52.158Z" style="fill:#ff3535;stroke:#ff3535;stroke-width:8.33px;"/><path id="Outer-ring" serif:id="Outer ring" d="M2235.91,959.05c672.646,0 1218.75,546.104 1218.75,1218.75c-0,672.646 -546.104,1218.75 -1218.75,1218.75c-672.646,0 -1218.75,-546.104 -1218.75,-1218.75c-0,-672.646 546.104,-1218.75 1218.75,-1218.75Zm-0,62.5c638.152,0 1156.25,518.098 1156.25,1156.25c-0,638.152 -518.098,1156.25 -1156.25,1156.25c-638.152,0 -1156.25,-518.098 -1156.25,-1156.25c-0,-638.152 518.098,-1156.25 1156.25,-1156.25Zm-0,231.25c510.521,0 925,414.479 925,925c-0,510.521 -414.479,925 -925,925c-510.521,0 -925,-414.479 -925,-925c-0,-510.521 414.479,-925 925,-925Zm-0,71.875c470.852,0 853.125,382.273 853.125,853.125c-0,470.853 -382.273,853.125 -853.125,853.125c-470.853,0 -853.125,-382.272 -853.125,-853.125c0,-470.852 382.272,-853.125 853.125,-853.125Z" style="fill:#ff3535;"/><g transform="matrix(0.253942,-3.11467,3.11467,0.253942,-122.986,3796.27)"><g transform="matrix(0.982609,0.185686,-0.185686,0.982609,87.2815,-109.847)"><text x="630.073px" y="411.037px" style="font-family:'Eorzea';font-size:64px;fill:#ff3535;">i</text></g><g transform="matrix(0.960926,0.276804,-0.276804,0.960926,139.296,-161.534)"><text x="641.814px" y="412.63px" style="font-family:'Eorzea';font-size:64px;fill:#ff3535;">n</text></g><g transform="matrix(0.914987,0.403483,-0.403483,0.914987,229.958,-240.18)"><text x="684.944px" y="425.617px" style="font-family:'Eorzea';font-size:64px;fill:#ff3535;">s</text></g><g transform="matrix(0.860326,0.509744,-0.509744,0.860326,324.761,-304.452)"><text x="717.934px" y="440.387px" style="font-family:'Eorzea';font-size:64px;fill:#ff3535;">p</text></g><g transform="matrix(0.796247,0.604972,-0.604972,0.796247,430.427,-359.627)"><text x="749.106px" y="459.186px" style="font-family:'Eorzea';font-size:64px;fill:#ff3535;">e</text></g><g transform="matrix(0.726057,0.687634,-0.687634,0.726057,542.166,-401.926)"><text x="775.528px" y="479.492px" style="font-family:'Eorzea';font-size:64px;fill:#ff3535;">c</text></g><g transform="matrix(0.648574,0.761152,-0.761152,0.648574,663.729,-432.038)"><text x="799.739px" y="502.763px" style="font-family:'Eorzea';font-size:64px;fill:#ff3535;">t</text></g><g transform="matrix(0.561186,0.82769,-0.82769,0.561186,795.931,-447.641)"><text x="820.135px" y="526.821px" style="font-family:'Eorzea';font-size:64px;fill:#ff3535;">o</text></g><g transform="matrix(0.459125,0.888372,-0.888372,0.459125,948.638,-445.269)"><text x="839.99px" y="556.421px" style="font-family:'Eorzea';font-size:64px;fill:#ff3535;">r</text></g><g transform="matrix(0.288718,0.957414,-0.957414,0.288718,1198.3,-394.204)"><text x="864.458px" y="609.378px" style="font-family:'Eorzea';font-size:64px;fill:#ff3535;">h</text></g><g transform="matrix(0.216762,0.976225,-0.976225,0.216762,1308.78,-351.073)"><text x="873.179px" y="640.094px" style="font-family:'Eorzea';font-size:64px;fill:#ff3535;">i</text></g><g transform="matrix(0.16132,0.986902,-0.986902,0.16132,1377.6,-317.815)"><text x="875.794px" y="651.629px" style="font-family:'Eorzea';font-size:64px;fill:#ff3535;">l</text></g><g transform="matrix(0.0661058,0.997813,-0.997813,0.0661058,1493.86,-248.295)"><text x="879.575px" y="673.905px" style="font-family:'Eorzea';font-size:64px;fill:#ff3535;">d</text></g><g transform="matrix(-0.0107025,0.999943,-0.999943,-0.0107025,1600.06,-164.362)"><text x="881.336px" y="709.331px" style="font-family:'Eorzea';font-size:64px;fill:#ff3535;">i</text></g><g transform="matrix(-0.0846414,0.996411,-0.996411,-0.0846414,1674.71,-96.0816)"><text x="881.488px" y="721.199px" style="font-family:'Eorzea';font-size:64px;fill:#ff3535;">b</text></g><g transform="matrix(-0.198383,0.980125,-0.980125,-0.198383,1792.38,43.1134)"><text x="878.557px" y="754.524px" style="font-family:'Eorzea';font-size:64px;fill:#ff3535;">r</text></g><g transform="matrix(-0.315294,0.948994,-0.948994,-0.315294,1895.61,212.37)"><text x="871.19px" y="790.032px" style="font-family:'Eorzea';font-size:64px;fill:#ff3535;">a</text></g><g transform="matrix(-0.439781,0.898105,-0.898105,-0.439781,1978.58,415.698)"><text x="859.639px" y="824.948px" style="font-family:'Eorzea';font-size:64px;fill:#ff3535;">n</text></g><g transform="matrix(-0.554958,0.831878,-0.831878,-0.554958,2024.83,647.05)"><text x="839.335px" y="865.152px" style="font-family:'Eorzea';font-size:64px;fill:#ff3535;">d</text></g><g transform="matrix(-0.723492,0.690332,-0.690332,-0.723492,2018.52,1015.96)"><text x="805.79px" y="912.232px" style="font-family:'Eorzea';font-size:64px;fill:#ff3535;">m</text></g><g transform="matrix(-0.819396,0.573227,-0.573227,-0.819396,1936.51,1289.21)"><text x="765.163px" y="949.667px" style="font-family:'Eorzea';font-size:64px;fill:#ff3535;">a</text></g><g transform="matrix(-0.888546,0.458788,-0.458788,-0.888546,1833.52,1496.2)"><text x="735.022px" y="970.812px" style="font-family:'Eorzea';font-size:64px;fill:#ff3535;">n</text></g><g transform="matrix(-0.941827,0.336099,-0.336099,-0.941827,1682.04,1690.89)"><text x="694.687px" y="991.01px" style="font-family:'Eorzea';font-size:64px;fill:#ff3535;">d</text></g><g transform="matrix(-0.973971,0.226671,-0.226671,-0.973971,1532.58,1829.37)"><text x="661.254px" y="1002.68px" style="font-family:'Eorzea';font-size:64px;fill:#ff3535;">e</text></g><g transform="matrix(-0.993602,0.11294,-0.11294,-0.993602,1367.36,1942.85)"><text x="628.647px" y="1010.15px" style="font-family:'Eorzea';font-size:64px;fill:#ff3535;">r</text></g><g transform="matrix(-0.999989,-0.00475693,0.00475693,-0.999989,1180.74,2030.92)"><text x="592.784px" y="1014.05px" style="font-family:'Eorzea';font-size:64px;fill:#ff3535;">v</text></g><g transform="matrix(-0.996511,-0.0834596,0.0834596,-0.996511,1025.84,2069.41)"><text x="556.174px" y="1013.26px" style="font-family:'Eorzea';font-size:64px;fill:#ff3535;">i</text></g><g transform="matrix(-0.990272,-0.139145,0.139145,-0.990272,942.64,2090.56)"><text x="544.398px" y="1012.33px" style="font-family:'Eorzea';font-size:64px;fill:#ff3535;">l</text></g><g transform="matrix(-0.977148,-0.212559,0.212559,-0.977148,817.752,2106.03)"><text x="522.084px" y="1009.06px" style="font-family:'Eorzea';font-size:64px;fill:#ff3535;">l</text></g><g transform="matrix(-0.953059,-0.302784,0.302784,-0.953059,672.392,2112.93)"><text x="499.981px" y="1004.34px" style="font-family:'Eorzea';font-size:64px;fill:#ff3535;">e</text></g><g transform="matrix(-0.84256,-0.538603,0.538603,-0.84256,263.569,2027.35)"><text x="428.094px" y="975.152px" style="font-family:'Eorzea';font-size:64px;fill:#ff3535;">s</text></g><g transform="matrix(-0.775707,-0.631093,0.631093,-0.775707,103.371,1947.64)"><text x="397.786px" y="955.453px" style="font-family:'Eorzea';font-size:64px;fill:#ff3535;">e</text></g><g transform="matrix(-0.698368,-0.715738,0.715738,-0.698368,-37.0106,1853.06)"><text x="371.959px" y="934.327px" style="font-family:'Eorzea';font-size:64px;fill:#ff3535;">a</text></g><g transform="matrix(-0.62616,-0.779694,0.779694,-0.62616,-144.029,1746.16)"><text x="346.601px" y="907.608px" style="font-family:'Eorzea';font-size:64px;fill:#ff3535;">l</text></g><g transform="matrix(-0.486495,-0.873684,0.873684,-0.486495,-286.148,1575.28)"><text x="319.86px" y="871.732px" style="font-family:'Eorzea';font-size:64px;fill:#ff3535;">o</text></g><g transform="matrix(-0.384492,-0.923129,0.923129,-0.384492,-356.694,1443.13)"><text x="302.766px" y="840.48px" style="font-family:'Eorzea';font-size:64px;fill:#ff3535;">f</text></g><g transform="matrix(-0.203754,-0.979022,0.979022,-0.203754,-430.804,1227.24)"><text x="283.659px" y="788.808px" style="font-family:'Eorzea';font-size:64px;fill:#ff3535;">a</text></g><g transform="matrix(-0.0850353,-0.996378,0.996378,-0.0850353,-450.068,1092.04)"><text x="276.37px" y="752.665px" style="font-family:'Eorzea';font-size:64px;fill:#ff3535;">s</text></g><g transform="matrix(0.0320965,-0.999485,0.999485,0.0320965,-451.593,967.049)"><text x="273.505px" y="716.689px" style="font-family:'Eorzea';font-size:64px;fill:#ff3535;">s</text></g><g transform="matrix(0.166749,-0.985999,0.985999,0.166749,-442.079,837.66)"><text x="274.569px" y="680.389px" style="font-family:'Eorzea';font-size:64px;fill:#ff3535;">u</text></g><g transform="matrix(0.299461,-0.954109,0.954109,0.299461,-407.854,714.726)"><text x="282.789px" y="635.104px" style="font-family:'Eorzea';font-size:64px;fill:#ff3535;">r</text></g><g transform="matrix(0.412202,-0.911093,0.911093,0.412202,-374.529,620.717)"><text x="293.794px" y="600.62px" style="font-family:'Eorzea';font-size:64px;fill:#ff3535;">a</text></g><g transform="matrix(0.530656,-0.847587,0.847587,0.530656,-335.527,527.989)"><text x="308.984px" y="566.959px" style="font-family:'Eorzea';font-size:64px;fill:#ff3535;">n</text></g><g transform="matrix(0.634848,-0.772637,0.772637,0.634848,-287.119,450.792)"><text x="333.363px" y="529.158px" style="font-family:'Eorzea';font-size:64px;fill:#ff3535;">c</text></g><g transform="matrix(0.715998,-0.698102,0.698102,0.715998,-250.589,390.669)"><text x="354.855px" y="503.32px" style="font-family:'Eorzea';font-size:64px;fill:#ff3535;">e</text></g></g><path d="M279.136,2538.69c72.871,-17.965 68.284,-17.03 93.198,-63.873c4.321,-8.124 -1.075,42.523 20.352,36.863c38.612,-10.2 2303.68,-453.787 2303.68,-453.787l17.471,-45.259l86.251,-16.97l40.321,27.063l38.655,-7.606l-3.775,-19.185l25.921,20.427l375.746,-73.93l10.429,24.546l62.338,-9.466c0,-0 164.797,-46.251 92.154,-380.401c3.759,3.768 14.203,7.569 14.203,7.569c0,-0 35.997,-78.882 -23.995,-249.781c11.661,-16.791 3.108,-77.835 4.227,-78.055c1.119,-0.22 16.18,59.519 34.335,70.786c-5.64,33.938 85.81,472.369 200.091,536.295c10.655,5.96 13.142,9.455 13.142,9.455l-13.066,23.12c0,0 1500.99,-262.162 1808.24,-314.79c11.751,-2.013 34.936,-3.303 35.217,-0.98c0.281,2.322 -22.147,10.292 -34.044,12.311c-245.139,41.603 -1375.84,237.702 -1421.48,305.882c-5.416,8.09 -27.288,45.271 -78.341,59.313c-43.88,12.069 60.643,-55.63 -13.211,-75.057c-10.268,-2.701 -289.294,49.577 -289.294,49.577c-0,-0 -49.593,14.214 -26.301,28.556c26.748,16.471 50.186,62.968 50.186,62.968l9.797,-5.23c-0,-0 116.587,101.396 109.169,241.24c-0.708,13.355 -50.175,-218.684 -330.22,-164.34c-17.116,3.321 -17.31,8.363 -17.31,8.363l0.89,5.785c0,0 -3.286,31.037 -54.11,40.652c-50.824,9.616 21.184,-7.023 25.384,-56.901c1.408,-16.717 -6.034,-12.764 9.682,-16.443c15.716,-3.679 39.987,-30.858 -0.018,-71.579c-2.449,-2.492 -7.586,4.875 -7.586,4.875c0,0 -27.288,-32.098 -91.04,-17.605c-10.627,2.416 -62.178,12.234 -62.178,12.234l-0.524,16.313l-172.403,33.921c-0,0 -128.759,26.192 -119.77,70.537c1.557,7.68 -9.627,7.766 -9.627,7.766c-0,-0 -55.543,-22.95 -91.774,17.587c-11.883,13.296 -46.189,-42.947 -46.189,-42.947l-50.595,7.988l-18.923,39.043c-0,-0 -44.89,33.115 -71.679,-14.336c-22.225,-39.366 -1.809,-35.194 -38.258,-28.022c-43.057,8.471 -120.449,59.248 -161.949,63.973c-35.775,4.073 -1814.81,357.074 -2218.44,436.491c-10.072,1.982 -155.467,6.381 -157.659,-0.511c-2.404,-7.56 131.363,-71.653 142.689,-74.445Zm3732.61,-628.811c-0,-0 11.824,12.352 29.05,-4.542c17.226,-16.893 12.546,-37.696 120.51,-58.939c16.392,-3.225 -123.226,24.245 -123.226,24.245c-0,0 8.711,32.34 -26.334,39.236Zm18.557,-37.705c-0.268,-0.892 -25.528,4.148 -25.008,4.92c5.435,8.065 4.328,18.98 4.781,24.298c0.181,2.129 27.191,-6.045 20.227,-29.218Z" style="fill:#989898;"/><clipPath id="_clip1"><path d="M279.136,2538.69c72.871,-17.965 68.284,-17.03 93.198,-63.873c4.321,-8.124 -1.075,42.523 20.352,36.863c38.612,-10.2 2303.68,-453.787 2303.68,-453.787l17.471,-45.259l86.251,-16.97l40.321,27.063l38.655,-7.606l-3.775,-19.185l25.921,20.427l375.746,-73.93l10.429,24.546l62.338,-9.466c0,-0 164.797,-46.251 92.154,-380.401c3.759,3.768 14.203,7.569 14.203,7.569c0,-0 35.997,-78.882 -23.995,-249.781c11.661,-16.791 3.108,-77.835 4.227,-78.055c1.119,-0.22 16.18,59.519 34.335,70.786c-5.64,33.938 85.81,472.369 200.091,536.295c10.655,5.96 13.142,9.455 13.142,9.455l-13.066,23.12c0,0 1500.99,-262.162 1808.24,-314.79c11.751,-2.013 34.936,-3.303 35.217,-0.98c0.281,2.322 -22.147,10.292 -34.044,12.311c-245.139,41.603 -1375.84,237.702 -1421.48,305.882c-5.416,8.09 -27.288,45.271 -78.341,59.313c-43.88,12.069 60.643,-55.63 -13.211,-75.057c-10.268,-2.701 -289.294,49.577 -289.294,49.577c-0,-0 -49.593,14.214 -26.301,28.556c26.748,16.471 50.186,62.968 50.186,62.968l9.797,-5.23c-0,-0 116.587,101.396 109.169,241.24c-0.708,13.355 -50.175,-218.684 -330.22,-164.34c-17.116,3.321 -17.31,8.363 -17.31,8.363l0.89,5.785c0,0 -3.286,31.037 -54.11,40.652c-50.824,9.616 21.184,-7.023 25.384,-56.901c1.408,-16.717 -6.034,-12.764 9.682,-16.443c15.716,-3.679 39.987,-30.858 -0.018,-71.579c-2.449,-2.492 -7.586,4.875 -7.586,4.875c0,0 -27.288,-32.098 -91.04,-17.605c-10.627,2.416 -62.178,12.234 -62.178,12.234l-0.524,16.313l-172.403,33.921c-0,0 -128.759,26.192 -119.77,70.537c1.557,7.68 -9.627,7.766 -9.627,7.766c-0,-0 -55.543,-22.95 -91.774,17.587c-11.883,13.296 -46.189,-42.947 -46.189,-42.947l-50.595,7.988l-18.923,39.043c-0,-0 -44.89,33.115 -71.679,-14.336c-22.225,-39.366 -1.809,-35.194 -38.258,-28.022c-43.057,8.471 -120.449,59.248 -161.949,63.973c-35.775,4.073 -1814.81,357.074 -2218.44,436.491c-10.072,1.982 -155.467,6.381 -157.659,-0.511c-2.404,-7.56 131.363,-71.653 142.689,-74.445Zm3732.61,-628.811c-0,-0 11.824,12.352 29.05,-4.542c17.226,-16.893 12.546,-37.696 120.51,-58.939c16.392,-3.225 -123.226,24.245 -123.226,24.245c-0,0 8.711,32.34 -26.334,39.236Zm18.557,-37.705c-0.268,-0.892 -25.528,4.148 -25.008,4.92c5.435,8.065 4.328,18.98 4.781,24.298c0.181,2.129 27.191,-6.045 20.227,-29.218Z"/></clipPath><g clip-path="url(#_clip1)"><path d="M2677.77,2046.25l-268.075,47.271l20.344,115.37l268.074,-47.271l-20.343,-115.37Z" style="fill:#7a1600;stroke:#000;stroke-width:8.33px;"/><path d="M1010.14,2361.66l-568.614,100.266l22.393,126.993l568.614,-100.266l-22.393,-126.993Z" style="fill:#7a1600;stroke:#000;stroke-width:8.33px;"/></g><g transform="matrix(0.98436,-0.176168,0.176168,0.98436,-96.4834,6.78901)"><text x="507.204px" y="2672.78px" style="font-family:'Eorzea';font-size:506.482px;fill:#ff8400;stroke:#000;stroke-width:17.62px;stroke-linecap:butt;stroke-linejoin:miter;stroke-miterlimit:2;">case closed</text></g></g></svg>